<svg version="1.0" xmlns="http://www.w3.org/2000/svg"
 width="720.000000pt" height="720.000000pt" viewBox="-36 -72 792 792"
 preserveAspectRatio="xMidYMid meet">

<g transform="translate(0.000000,720.000000) scale(0.100000,-0.100000)"
fill="#443794" stroke="none">
<path d="M880 7189 c-403 -46 -736 -338 -848 -744 l-27 -100 0 -2745 0 -2745
27 -100 c114 -412 444 -698 861 -744 134 -15 5280 -15 5414 0 417 46 747 332
861 744 l27 100 0 2745 0 2745 -27 100 c-114 412 -444 698 -861 744 -118 13
-5312 13 -5427 0z m2275 -2199 c238 -34 406 -129 516 -292 43 -62 129 -233
129 -255 0 -26 16 -12 37 35 81 174 252 338 445 426 288 131 726 127 988 -10
215 -112 344 -307 416 -624 53 -235 56 -289 61 -1212 l5 -858 -371 0 -371 0 0
774 c0 632 -3 796 -15 889 -48 370 -191 517 -500 517 -329 0 -484 -167 -524
-565 -7 -68 -11 -389 -11 -862 l0 -753 -365 0 -365 0 0 688 c0 378 -5 759 -10
847 -18 289 -68 446 -171 539 -144 130 -445 140 -627 20 -120 -79 -193 -245
-221 -502 -7 -66 -11 -371 -11 -847 l0 -745 -370 0 -370 0 2 1373 3 1372 368
3 367 2 0 -212 0 -213 30 58 c107 212 312 353 583 402 88 16 257 18 352 5z"/>
</g>
</svg>
